# xmcd
#
# Track frame offsets:
#	150
#	17503
#	31413
#	48442
#	63372
#	82126
#	98114
#	114290
#	128714
#	145344
#	164818
#	183600
#	203936
#	225028
#	240758
#	254110
#	271365
#	285117
#	306589
#
# Disc length: 4272 seconds
#
# Revision: 0
# Processed by: cddbd v1.5.2PL0 Copyright (c) Steve Scherf et al.
# Submitted via: EasyCDDAExtractor 5.0.5.1
#
DISCID=0810ae13
DTITLE=Various Artist - HOTT COUNTRY # 130
DYEAR=1900
DGENRE=Country
TTITLE0=Rockie Lynne - MORE
TTITLE1=Adam Gregory - DON'T SEND THE INVITATION
TTITLE2=Keith Urban - Stupid Boy (radio edit)
TTITLE3=Damian Marshall - BUILT TO LAST
TTITLE4=Sara Evans - MISSING MISSOURI
TTITLE5=Kenny Chesney - Reba McEntire - I WAS COUNTRY
TTITLE6=Chris Cummings - FOR THE MUSIC
TTITLE7=Jimmy Buffett - BAMA BREEZE
TTITLE8=Deirks Bentley - Long Trip Alone
TTITLE9=Jason Micheal Carroll - ALYSSA LIES
TTITLE10=Alan Jackson - A WOMAN'S LOVE
TTITLE11=Dixie Chixks - THE LONG WAY AROUND
TTITLE12=Martina McBride - ANYWAY
TTITLE13=Gary Allan - A FEELIN' LIKE THAT
TTITLE14=Josh Turner - ME AND GOD
TTITLE15=Randy Owens - Years
TTITLE16=Miranda Lambert - CRAZY EX GIRLFRIEND
TTITLE17=Brad Paisley - BORN ON CHRISTMAS DAY
TTITLE18=Dolly Parton - I WILL ALWAYS LOVE YOU
EXTD=September 2006\n
EXTT0=
EXTT1=
EXTT2=
EXTT3=
EXTT4=
EXTT5=
EXTT6=
EXTT7=
EXTT8=
EXTT9=
EXTT10=
EXTT11=
EXTT12=
EXTT13=
EXTT14=
EXTT15=
EXTT16=
EXTT17=
EXTT18=
PLAYORDER=
